<svg xmlns="http://www.w3.org/2000/svg" width="60.066" height="81" viewBox="0 0 60.066 81">
  <g id="icon-profile" transform="translate(-1329.415 -151.532)">
    <g id="Group_859" data-name="Group 859" transform="translate(1329.415 151.532)">
      <path id="Path_337" data-name="Path 337" d="M1348.524,163.891A19.308,19.308,0,0,0,1329.415,183v19.113a2.73,2.73,0,1,0,5.459,0V183a13.775,13.775,0,0,1,13.65-13.65h21.844a13.775,13.775,0,0,1,13.65,13.65v19.113a2.731,2.731,0,0,0,5.463,0V183a19.311,19.311,0,0,0-19.113-19.113Z" transform="translate(-1329.415 -123.848)" fill="#f37021"/>
      <path id="Path_338" data-name="Path 338" d="M1350.358,151.532a16.816,16.816,0,0,0-17.292,17.292c0,9.94,7.352,18.2,17.292,18.2a18.348,18.348,0,0,0,18.2-18.2C1368.56,158.884,1360.3,151.532,1350.358,151.532Zm0,5.459c7.024,0,12.743,4.808,12.743,11.833a12.76,12.76,0,0,1-12.743,12.74c-7.021,0-11.83-5.719-11.83-12.74S1343.336,156.991,1350.358,156.991Z" transform="translate(-1321.237 -151.532)" fill="#f37021"/>
    </g>
  </g>
</svg>
