<svg xmlns="http://www.w3.org/2000/svg" width="120.241" height="81" viewBox="0 0 120.241 81">
  <g id="icon-chat" transform="translate(-1074.803 -390.169)">
    <path id="Path_243" data-name="Path 243" d="M1162.429,418.8a40.462,40.462,0,0,0-38.635-28.537v5a35.457,35.457,0,0,1,34.746,42.39,35.446,35.446,0,0,1-57.659,20.122l-.717-.606-.888-.3a10.9,10.9,0,0,0-3.6-.433,86.068,86.068,0,0,0-12.226,1.152c2.907-4.915,6.522-11.725,6.678-14.682l.047-.888-.262-.849a35.477,35.477,0,0,1,33.884-45.9v-5h0a40.477,40.477,0,0,0-38.662,52.375c-.073,1.384-3.081,7.916-7.821,15.4l-2.276,3.594a1.491,1.491,0,0,0,1.257,2.289,1.511,1.511,0,0,0,.274-.026l4.184-.777a91.814,91.814,0,0,1,14.923-1.686,7.73,7.73,0,0,1,1.982.162,40.445,40.445,0,0,0,64.775-42.794Z" fill="#f37021"/>
    <path id="Path_244" data-name="Path 244" d="M1123.794,390.268Z" fill="#f37021"/>
    <path id="Path_245" data-name="Path 245" d="M1194.937,461.733l-1.405-3.513c-2.837-7.1-4.388-13.237-4.266-14.375a36.177,36.177,0,0,0-31.629-53.676h-.029a36.3,36.3,0,0,0-7.188.719,1.491,1.491,0,0,0-.457,2.748,41.357,41.357,0,0,1,7.088,66.264,1.491,1.491,0,0,0,1.008,2.59h.019a36.169,36.169,0,0,0,16.708-4.317,1.96,1.96,0,0,1,.2-.009c1.636,0,7.589,1.489,14.5,4.154l3.534,1.362a1.49,1.49,0,0,0,.536.1h0l0,0a1.49,1.49,0,0,0,1.384-2.044Zm-7.488-5.477c-4.9-1.688-10.05-3.092-12.462-3.092a6.732,6.732,0,0,0-.765.041,5,5,0,0,0-1.805.566,31.211,31.211,0,0,1-5.332,2.256,46.437,46.437,0,0,0-3.719-57.929q-1.33-1.455-2.774-2.788a31.184,31.184,0,0,1,28.188,31.066,31.257,31.257,0,0,1-3.89,15.051,4.991,4.991,0,0,0-.595,1.885C1184.027,445.81,1185.812,451.671,1187.449,456.256Z" fill="#f37021"/>
    <path id="Path_246" data-name="Path 246" d="M1116.509,432.622a7.508,7.508,0,0,0,7.487,7.529H1124a7.508,7.508,0,1,0-7.492-7.529Zm7.494-2.487a2.508,2.508,0,1,1-2.494,2.5A2.5,2.5,0,0,1,1124,430.135Z" fill="#f37021"/>
    <path id="Path_247" data-name="Path 247" d="M1146.178,440.5h.005a7.489,7.489,0,1,0-.005,0Zm.007-10.016a2.508,2.508,0,1,1-2.493,2.5A2.5,2.5,0,0,1,1146.185,430.484Z" fill="#f37021"/>
    <path id="Path_248" data-name="Path 248" d="M1101.832,425.117h-.005a7.508,7.508,0,0,0-.006,15.016h.006a7.508,7.508,0,0,0,.005-15.016Zm0,10.016a2.508,2.508,0,1,1,2.489-2.5A2.51,2.51,0,0,1,1101.83,435.133Z" fill="#f37021"/>
  </g>
</svg>
