<svg xmlns="http://www.w3.org/2000/svg" width="80.994" height="81" viewBox="0 0 80.994 81">
  <path id="icon-lessons" d="M50.867,36.175,69.622,17.42l-6.049-6.049L44.685,30.126c-.617.862-3.334,6.911-5.555,11.726a120.05,120.05,0,0,0,11.727-5.677ZM74.94,19.124,54.447,39.619h0a113.77,113.77,0,0,1-16.049,7.9c-1.481.617-2.592,1.113-3.086,1.364a2.217,2.217,0,0,1-1.975,0,2.386,2.386,0,0,1-1.27-3.127c.011-.028.023-.055.036-.081.246-.494.74-1.607,1.364-3.086A132.77,132.77,0,0,1,41,27.033c.122-.123.245-.373.371-.5L61.616,6.294h0l.245-.246L65.813,2.1a7.16,7.16,0,0,1,10.123,0h0L78.9,5.059a7.16,7.16,0,0,1,0,10.123h0Zm-7.9-11.235,6.049,6.049,2.223-2.223h0a1.991,1.991,0,0,0,.74-1.607,2.174,2.174,0,0,0-.74-1.605l-2.84-2.841h0a2.182,2.182,0,0,0-1.607-.739,1.991,1.991,0,0,0-1.605.739ZM70.5,52.47a2.469,2.469,0,0,1,4.938,0V71.112A10.129,10.129,0,0,1,65.544,81H9.891A10.129,10.129,0,0,1,0,71.112V15.445A10.129,10.129,0,0,1,9.891,5.556H28.532a2.469,2.469,0,0,1,0,4.938H9.891a5.064,5.064,0,0,0-4.938,4.938V71.108a5.064,5.064,0,0,0,4.938,4.938H65.567A5.064,5.064,0,0,0,70.5,71.108Z" transform="translate(-0.002 0)" fill="#f37021"/>
</svg>
