<svg xmlns="http://www.w3.org/2000/svg" width="84.857" height="81" viewBox="0 0 84.857 81">
  <g id="icon-statistic" transform="translate(-6 -8)">
    <path id="Path_228" data-name="Path 228" d="M7.929,8A1.928,1.928,0,0,0,6,9.929V87.071A1.928,1.928,0,0,0,7.929,89h81a1.929,1.929,0,1,0,0-3.857H9.857V9.929A1.928,1.928,0,0,0,7.929,8ZM65.786,26.321a2.084,2.084,0,0,0-2.019,2.019,2.007,2.007,0,0,0,2.019,1.838H76.393L48.369,56.516c-3.516-2.926-7.081-5.858-10.065-8.408a1.955,1.955,0,0,0-2.742-.091L16.275,65.375a2.026,2.026,0,0,0-.121,2.742,1.987,1.987,0,0,0,2.713.121L36.887,52l10.186,8.467a2,2,0,0,0,2.682.03L79.286,32.74V43.679a1.929,1.929,0,1,0,3.857,0V28.25a2,2,0,0,0-1.929-1.929Z" fill="#f37021"/>
  </g>
</svg>
