<svg xmlns="http://www.w3.org/2000/svg" width="118.262" height="81.432" viewBox="0 0 118.262 81.432">
  <g id="icon-play" transform="translate(-2.998 -10.785)">
    <path id="Path_221" data-name="Path 221" d="M86.789,11.72c-5.688,1.5-10.077,4.3-13.067,8.339H50.536c-2.989-4.039-7.379-6.842-13.067-8.339C28.649,9.395,12.813,9.447,5.855,35.86c-5.345,20.3-3.912,52.2,10.5,56a10.813,10.813,0,0,0,2.769.357c10.522,0,21.955-14.715,28.9-29.937h28.2c7.563,16.567,20.432,32.531,31.67,29.58,14.415-3.8,15.848-35.7,10.5-56C111.445,9.447,95.616,9.4,86.789,11.72Zm19.9,75.568c-7.209,1.9-18.987-10.536-26.763-28.321a2.364,2.364,0,0,0-2.166-1.417H46.5a2.362,2.362,0,0,0-2.166,1.417C36.551,76.754,24.773,89.194,17.565,87.287,8.488,84.894,4.755,58.611,10.429,37.064c3.779-14.346,10.5-21.579,20.02-21.579a22.976,22.976,0,0,1,5.813.806c5.007,1.32,8.722,3.815,11.045,7.414A2.369,2.369,0,0,0,49.3,24.789H74.962a2.369,2.369,0,0,0,1.989-1.083c2.322-3.6,6.038-6.095,11.045-7.414,12.627-3.311,21.326,3.663,25.833,20.772C119.5,58.611,115.77,84.894,106.693,87.287Z" transform="translate(0 0)" fill="#f37021"/>
    <path id="Path_222" data-name="Path 222" d="M31.42,28.717H23.241V20.539a2.365,2.365,0,1,0-4.73,0v8.178H10.333a2.365,2.365,0,1,0,0,4.73h8.178v8.178a2.365,2.365,0,1,0,4.73,0V33.447H31.42a2.365,2.365,0,0,0,0-4.73Z" transform="translate(6.784 10.087)" fill="#f37021"/>
    <path id="Path_223" data-name="Path 223" d="M41.434,22.632H26.705a2.365,2.365,0,0,0,0,4.73H41.434a2.365,2.365,0,1,0,0-4.73Z" transform="translate(29.133 16.172)" fill="#f37021"/>
    <path id="Path_224" data-name="Path 224" d="M44.512,18.747a2.364,2.364,0,0,0-2.365,2.365v2.181a2.365,2.365,0,1,0,4.73,0V21.112A2.364,2.364,0,0,0,44.512,18.747Z" transform="translate(53.44 10.869)" fill="#f37021"/>
    <path id="Path_225" data-name="Path 225" d="M42.81,22.632H40.627a2.365,2.365,0,0,0,0,4.73H42.81a2.365,2.365,0,1,0,0-4.73Z" transform="translate(48.137 16.172)" fill="#f37021"/>
    <path id="Path_226" data-name="Path 226" d="M44.512,25.594a2.364,2.364,0,0,0-2.365,2.365v2.183a2.365,2.365,0,1,0,4.73,0V27.959A2.364,2.364,0,0,0,44.512,25.594Z" transform="translate(53.44 20.215)" fill="#f37021"/>
    <path id="Path_227" data-name="Path 227" d="M49.657,22.632H47.474a2.365,2.365,0,0,0,0,4.73h2.183a2.365,2.365,0,1,0,0-4.73Z" transform="translate(57.483 16.172)" fill="#f37021"/>
  </g>
</svg>
