<svg xmlns="http://www.w3.org/2000/svg" width="128.754" height="85.739" viewBox="0 0 128.754 85.739">
  <g id="icon-training" transform="translate(-7.175 14.337) rotate(-14)">
    <g id="Group_407" data-name="Group 407" transform="translate(3.524 15.524)">
      <path id="Path_229" data-name="Path 229" d="M114.2,37.613h-4.552V30.107a7.35,7.35,0,0,0-9.843-6.93v-.33c0-9.769-14.765-9.762-14.765,0V37.613H40.032V22.848c0-9.769-14.765-9.762-14.765,0v.33a7.351,7.351,0,0,0-9.843,6.93v7.505H10.847c-9.769,0-9.76,14.765,0,14.765h4.577V59.9a7.35,7.35,0,0,0,9.843,6.93v.308c0,9.764,14.765,9.767,14.765,0V52.377H85.04V67.142c0,9.764,14.765,9.767,14.765,0v-.308a7.35,7.35,0,0,0,9.843-6.93V52.377H114.2C123.97,52.377,123.96,37.613,114.2,37.613ZM15.424,47.456H10.847a2.461,2.461,0,0,1,0-4.922h4.577ZM25.268,59.9a2.461,2.461,0,0,1-4.922,0v-29.8a2.461,2.461,0,0,1,4.922,0Zm9.843,7.237a2.461,2.461,0,0,1-4.922,0V22.848a2.461,2.461,0,0,1,4.922,0ZM85.04,47.456H40.032V42.534H85.04Zm9.843,19.686a2.461,2.461,0,0,1-4.922,0V22.848a2.461,2.461,0,0,1,4.922,0Zm9.843-17.226V59.9a2.461,2.461,0,0,1-4.922,0v-29.8a2.461,2.461,0,0,1,4.922,0Zm4.922-2.461V42.534c1.932.3,7.013-1.166,7.013,2.461S111.577,47.153,109.648,47.456Z" transform="translate(-3.524 -15.524)" fill="#f37021"/>
    </g>
  </g>
</svg>
